{
  "source": "C:\\Users\\Peter\\Desktop\\stuff\\MIUN\\quantitative_research\\video_compression\\videos\\BVI-HD\\BVI-HD_CDVL_videos\\ORIG\\CarpetCircleFast_1920x1080_60fps.mp4",
  "output": "C:\\Users\\Peter\\Desktop\\stuff\\MIUN\\quantitative_research\\video_compression\\compressed_videos\\BVI-HD\\av1\\1.5\\CarpetCircleFast_1920x1080_60fps_av1.mkv",
  "codec": "av1",
  "ok": "Input #0, mov,mp4,m4a,3gp,3g2,mj2, from 'C:\\Users\\Peter\\Desktop\\stuff\\MIUN\\quantitative_research\\video_compression\\videos\\BVI-HD\\BVI-HD_CDVL_videos\\ORIG\\CarpetCircleFast_1920x1080_60fps.mp4':\n  Metadata:\n    major_brand     : isom\n    minor_version   : 512\n    compatible_brands: isomiso2avc1mp41\n    encoder         : Lavf54.28.101\n  Duration: 00:00:05.00, start: 0.000000, bitrate: 324759 kb/s\n  Stream #0:0[0x1](und): Video: h264 (High 4:4:4 Predictive) (avc1 / 0x31637661), yuv420p(progressive), 1920x1080, 324754 kb/s, 60 fps, 60 tbr, 60 tbn (default)\n    Metadata:\n      handler_name    : VideoHandler\n      vendor_id       : [0][0][0][0]\n[out#0/matroska @ 000001a50844cd80] Codec AVOption b:a (set bitrate (in bits/s)) has not been used for any stream. The most likely reason is either wrong type (e.g. a video option with no video streams) or that it is a private option of some decoder which was not actually used for any stream.\nStream mapping:\n  Stream #0:0 -> #0:0 (h264 (native) -> av1 (libsvtav1))\nPress [q] to stop, [?] for help\nSvt[info]: -------------------------------------------\nSvt[info]: SVT [version]:\tSVT-AV1 Encoder Lib v3.1.0-19-g6ecfe8ec\nSvt[info]: SVT [build]  :\tGCC 15.2.0\t 64 bit\nSvt[info]: LIB Build date: Aug 17 2025 11:37:13\nSvt[info]: -------------------------------------------\nSvt[info]: Level of Parallelism: 5\nSvt[info]: Number of PPCS 93\nSvt[info]: [asm level on system : up to avx2]\nSvt[info]: [asm level selected : up to avx2]\nSvt[info]: -------------------------------------------\nSvt[info]: SVT [config]: main profile\ttier (auto)\tlevel (auto)\nSvt[info]: SVT [config]: width / height / fps numerator / fps denominator \t\t: 1920 / 1080 / 60 / 1\nSvt[info]: SVT [config]: bit-depth / color format \t\t\t\t\t: 8 / YUV420\nSvt[info]: SVT [config]: preset / tune / pred struct \t\t\t\t\t: 4 / PSNR / random access\nSvt[info]: SVT [config]: gop size / mini-gop size / key-frame type \t\t\t: 321 / 16 / key frame\nSvt[info]: SVT [config]: BRC mode / target bitrate (kbps)\t\t\t\t: VBR / 1500 \nSvt[info]: SVT [config]: AQ mode / Variance Boost \t\t\t\t\t: 2 / 0\nSvt[info]: SVT [config]: sharpness / luminance-based QP bias \t\t\t\t: 0 / 0\nSvt[info]: SVT [config]: QP scale compress strength \t\t\t\t\t: 0\nSvt[info]: -------------------------------------------\nOutput #0, matroska, to 'C:\\Users\\Peter\\Desktop\\stuff\\MIUN\\quantitative_research\\video_compression\\compressed_videos\\BVI-HD\\av1\\1.5\\CarpetCircleFast_1920x1080_60fps_av1.mkv':\n  Metadata:\n    major_brand     : isom\n    minor_version   : 512\n    compatible_brands: isomiso2avc1mp41\n    encoder         : Lavf62.3.100\n  Stream #0:0(und): Video: av1 (AV01 / 0x31305641), yuv420p(tv, progressive), 1920x1080, q=2-31, 1500 kb/s, 60 fps, 1k tbn (default)\n    Metadata:\n      encoder         : Lavc62.11.100 libsvtav1\n      handler_name    : VideoHandler\n      vendor_id       : [0][0][0][0]\n    Side data:\n      cpb: bitrate max/min/avg: 0/0/1500000 buffer size: 1500000 vbv_delay: N/A\nframe=    0 fps=0.0 q=0.0 size=       0KiB time=N/A bitrate=N/A speed=N/A elapsed=0:00:01.04    \nframe=    0 fps=0.0 q=0.0 size=       0KiB time=N/A bitrate=N/A speed=N/A elapsed=0:00:01.64    \nframe=    0 fps=0.0 q=0.0 size=       0KiB time=N/A bitrate=N/A speed=N/A elapsed=0:00:02.16    \nframe=    0 fps=0.0 q=0.0 size=       0KiB time=N/A bitrate=N/A speed=N/A elapsed=0:00:02.67    \nframe=    1 fps=0.3 q=23.0 size=       1KiB time=00:00:00.00 bitrate=N/A speed=   0x elapsed=0:00:03.19    \nframe=    7 fps=1.9 q=43.0 size=       1KiB time=00:00:00.10 bitrate=  57.0kbits/s speed=0.0269x elapsed=0:00:03.71    \nframe=   18 fps=4.2 q=39.0 size=       1KiB time=00:00:00.26 bitrate=  21.4kbits/s speed=0.0627x elapsed=0:00:04.25    \nframe=   26 fps=5.4 q=35.0 size=       1KiB time=00:00:00.41 bitrate=  13.7kbits/s speed=0.0864x elapsed=0:00:04.82    \nframe=   32 fps=5.9 q=33.0 size=       1KiB time=00:00:00.51 bitrate=  11.0kbits/s speed=0.0959x elapsed=0:00:05.38    \nframe=   38 fps=6.4 q=31.0 size=       1KiB time=00:00:00.61 bitrate=   9.2kbits/s speed=0.104x elapsed=0:00:05.91    \nframe=   42 fps=6.5 q=30.0 size=       1KiB time=00:00:00.68 bitrate=   8.3kbits/s speed=0.106x elapsed=0:00:06.44    \nframe=   46 fps=6.6 q=30.0 size=       1KiB time=00:00:00.75 bitrate=   7.6kbits/s speed=0.108x elapsed=0:00:06.97    \nframe=   52 fps=6.9 q=29.0 size=       1KiB time=00:00:00.85 bitrate=   6.7kbits/s speed=0.113x elapsed=0:00:07.49    \nframe=   56 fps=7.0 q=32.0 size=       1KiB time=00:00:00.91 bitrate=   6.2kbits/s speed=0.114x elapsed=0:00:08.01    \nframe=   62 fps=7.3 q=35.0 size=       1KiB time=00:00:01.01 bitrate=   5.6kbits/s speed=0.119x elapsed=0:00:08.53    \nframe=   70 fps=7.7 q=50.0 size=       1KiB time=00:00:01.15 bitrate=   5.0kbits/s speed=0.127x elapsed=0:00:09.05    \nframe=   78 fps=8.2 q=37.0 size=       1KiB time=00:00:01.26 bitrate=   4.5kbits/s speed=0.132x elapsed=0:00:09.56    \nframe=   83 fps=8.2 q=35.0 size=       1KiB time=00:00:01.36 bitrate=   4.2kbits/s speed=0.135x elapsed=0:00:10.09    \nframe=   89 fps=8.4 q=33.0 size=       1KiB time=00:00:01.46 bitrate=   3.9kbits/s speed=0.138x elapsed=0:00:10.61    \nframe=   96 fps=8.6 q=38.0 size=       1KiB time=00:00:01.58 bitrate=   3.6kbits/s speed=0.142x elapsed=0:00:11.13    \nframe=  103 fps=8.8 q=37.0 size=       1KiB time=00:00:01.70 bitrate=   3.4kbits/s speed=0.146x elapsed=0:00:11.66    \nframe=  110 fps=9.0 q=37.0 size=       1KiB time=00:00:01.80 bitrate=   3.2kbits/s speed=0.148x elapsed=0:00:12.19    \nframe=  118 fps=9.3 q=37.0 size=       1KiB time=00:00:01.95 bitrate=   2.9kbits/s speed=0.153x elapsed=0:00:12.75    \nframe=  125 fps=9.4 q=39.0 size=       1KiB time=00:00:02.06 bitrate=   2.8kbits/s speed=0.156x elapsed=0:00:13.26    \nframe=  134 fps=9.7 q=37.0 size=       1KiB time=00:00:02.21 bitrate=   2.6kbits/s speed=0.161x elapsed=0:00:13.80    \nframe=  139 fps=9.7 q=33.0 size=       1KiB time=00:00:02.30 bitrate=   2.5kbits/s speed=0.161x elapsed=0:00:14.32    \nframe=  148 fps= 10 q=38.0 size=       1KiB time=00:00:02.45 bitrate=   2.3kbits/s speed=0.165x elapsed=0:00:14.85    \nframe=  156 fps= 10 q=37.0 size=       1KiB time=00:00:02.56 bitrate=   2.2kbits/s speed=0.167x elapsed=0:00:15.37    \nframe=  165 fps= 10 q=37.0 size=       1KiB time=00:00:02.73 bitrate=   2.1kbits/s speed=0.172x elapsed=0:00:15.92    \nframe=  175 fps= 11 q=38.0 size=       1KiB time=00:00:02.90 bitrate=   2.0kbits/s speed=0.176x elapsed=0:00:16.44    \nframe=  183 fps= 11 q=37.0 size=       1KiB time=00:00:03.03 bitrate=   1.9kbits/s speed=0.179x elapsed=0:00:16.98    \nframe=  194 fps= 11 q=39.0 size=       1KiB time=00:00:03.21 bitrate=   1.8kbits/s speed=0.184x elapsed=0:00:17.50    \nframe=  202 fps= 11 q=39.0 size=       1KiB time=00:00:03.35 bitrate=   1.7kbits/s speed=0.186x elapsed=0:00:18.02    \nframe=  211 fps= 11 q=41.0 size=       1KiB time=00:00:03.50 bitrate=   1.6kbits/s speed=0.188x elapsed=0:00:18.58    \nframe=  225 fps= 12 q=24.0 size=       1KiB time=00:00:03.73 bitrate=   1.5kbits/s speed=0.195x elapsed=0:00:19.13    \nframe=  233 fps= 12 q=38.0 size=       1KiB time=00:00:03.86 bitrate=   1.5kbits/s speed=0.197x elapsed=0:00:19.65    \nframe=  249 fps= 12 q=36.0 size=       1KiB time=00:00:04.13 bitrate=   1.4kbits/s speed=0.205x elapsed=0:00:20.20    \nframe=  257 fps= 12 q=25.0 size=       1KiB time=00:00:04.26 bitrate=   1.3kbits/s speed=0.206x elapsed=0:00:20.73    \nframe=  269 fps= 13 q=37.0 size=       1KiB time=00:00:04.46 bitrate=   1.3kbits/s speed=0.21x elapsed=0:00:21.27    \nframe=  281 fps= 13 q=33.0 size=       1KiB time=00:00:04.66 bitrate=   1.2kbits/s speed=0.214x elapsed=0:00:21.78    \n[out#0/matroska @ 000001a50844cd80] video:818KiB audio:0KiB subtitle:0KiB other streams:0KiB global headers:0KiB muxing overhead: 0.252240%\nframe=  300 fps= 14 q=45.0 Lsize=     820KiB time=00:00:04.98 bitrate=1348.2kbits/s speed=0.226x elapsed=0:00:22.08    \n",
  "seconds": 22.492064237594604,
  "probe_out": {}
}